<svg width="70" height="50" viewBox="0 0 70 50" fill="none" xmlns="http://www.w3.org/2000/svg">
<path d="M16.7046 1.23987C16.2831 1.81848 15.8119 2.38882 15.3986 3.00876C14.9853 3.62869 14.415 4.13291 14.0265 4.75285C13.638 5.37278 13.2412 5.99272 12.8693 6.63745C12.4973 7.28219 12.084 7.88559 11.7451 8.53033C11.4062 9.17506 11.3732 10.0016 11.0343 10.6546C10.6954 11.3076 10.0424 11.8036 9.71174 12.4649C9.38111 13.1261 9.07527 13.8039 8.7529 14.4569C8.43054 15.1099 8.24042 15.8621 7.92632 16.5151C7.61222 17.1681 7.38904 17.9038 7.09974 18.5485C6.81043 19.1932 6.34755 19.9785 5.95905 20.6646C5.57056 21.3506 5.13247 22.045 4.82664 22.7724C4.5208 23.4997 4.1571 24.2271 3.85953 24.9545C3.56196 25.6819 3.31399 26.4589 3.03295 27.2111C2.75131 27.9618 2.51666 28.7292 2.33036 29.509C2.23352 30.3014 2.19484 31.0998 2.21463 31.8978C2.14851 32.69 2.14851 33.4862 2.21463 34.2784C2.32812 35.0492 2.49382 35.8114 2.71058 36.5598C2.83327 37.3371 3.01004 38.1049 3.2396 38.8577C3.59331 39.5578 3.99661 40.2318 4.44641 40.8745C4.82483 41.5626 5.25594 42.2203 5.73588 42.8418C6.24099 43.4369 6.79389 43.9898 7.38904 44.495C8.02228 44.9595 8.69429 45.3688 9.39764 45.7183C10.0543 46.1425 10.7489 46.5049 11.4724 46.8011C12.2146 47.0598 12.9779 47.2534 13.7537 47.3797C14.5333 47.4631 15.318 47.4879 16.1012 47.4541C16.8829 47.5458 17.6704 47.5789 18.457 47.5533C19.2052 47.442 19.9473 47.293 20.6805 47.107C21.4136 46.8725 22.1337 46.5993 22.8379 46.2886C23.5611 46.0873 24.273 45.8472 24.9705 45.5695C25.6174 45.191 26.2412 44.7742 26.8385 44.3214C27.5211 43.9967 28.1811 43.6267 28.8141 43.2137C29.3194 42.6502 29.7756 42.0446 30.1779 41.4035C30.632 40.821 31.0279 40.1953 31.3599 39.5355C31.6781 38.8707 31.9194 38.1719 32.0791 37.4525C32.2955 36.7482 32.4314 36.0217 32.4841 35.2868C32.5209 34.4947 32.4627 33.701 32.3105 32.9228C32.0861 32.161 31.7842 31.4243 31.4095 30.7241C31.0979 29.998 30.7275 29.2986 30.3019 28.6328C29.8558 27.9794 29.3612 27.3605 28.8223 26.7813C28.3528 26.127 27.8392 25.5056 27.2849 24.9215C26.5771 24.5297 25.8391 24.1953 25.0779 23.9213C24.4192 23.4817 23.722 23.1027 22.9949 22.7889C22.3029 22.4899 21.5791 22.2709 20.8375 22.1359C20.8295 21.3772 20.9612 20.6234 21.226 19.9124C21.5874 19.1859 22.0106 18.4918 22.4907 17.8377C22.9619 17.1764 23.4082 16.4738 23.9207 15.8869C24.4332 15.3 25.2598 14.8372 25.764 14.3081C26.3331 13.6583 26.98 13.0809 27.6899 12.5889C28.4125 12.2154 29.0847 11.7515 29.6902 11.2085C29.0882 10.8111 28.5087 10.3806 27.9544 9.91899C27.4254 9.43957 27.1278 8.68738 26.5575 8.16663C25.9872 7.64589 25.4251 7.19953 24.9043 6.68705C24.3836 6.17457 23.9455 5.50504 23.4 5.03388C22.779 4.60909 22.1362 4.2173 21.474 3.86014C20.8545 3.46495 20.1985 3.13004 19.515 2.85997" stroke="#FF534F" stroke-width="3" stroke-linecap="round" stroke-linejoin="round"/>
<path d="M56.9259 21.2266C56.9761 20.3598 57.1717 19.5075 57.5045 18.7055C57.9141 18.0128 58.3873 17.3598 58.918 16.7548C59.3929 16.1041 59.9006 15.4778 60.4389 14.8785C61.001 14.2337 61.6126 13.6964 62.0921 13.1674C62.6224 12.4895 63.2361 11.8813 63.9188 11.3572C64.7579 10.9806 65.5557 10.518 66.2994 9.97682C65.6546 9.51393 64.8942 8.92706 64.2329 8.48897C63.5716 8.05088 62.8277 7.75331 62.1665 7.33175C61.5052 6.91019 60.7447 6.61262 60.0587 6.21586C59.3726 5.8191 58.6783 5.43061 57.9757 5.05865C57.2731 4.68668 56.6118 4.23206 55.8927 3.91796C54.3883 3.50467 54.4048 3.2319 52.8426 3.22363C52.3549 3.90143 51.892 4.57096 51.4126 5.19917C50.9332 5.82737 50.3298 6.43904 49.8421 7.07551C49.3544 7.71198 49.0155 8.47243 48.503 9.11717C47.9906 9.7619 47.4615 10.3653 46.9904 11.0266C46.5192 11.6878 46.1638 12.3822 45.6761 13.0765C45.1884 13.7708 44.6429 14.3329 44.2379 15.0603C43.8329 15.7877 43.6262 16.5481 43.2625 17.3003C42.8988 18.0525 42.4359 18.6807 42.1136 19.3999C41.7912 20.119 41.3862 20.8216 41.0473 21.549C40.7084 22.2764 40.4935 23.0534 40.2207 23.789C39.9479 24.5247 39.5098 25.2355 39.2701 25.996C39.0327 26.7584 38.8395 27.534 38.6915 28.3187C38.5821 29.113 38.5269 29.9139 38.5262 30.7158C38.4098 31.5148 38.36 32.3221 38.3774 33.1294C38.4875 33.9042 38.6449 34.6716 38.8486 35.4273C39.1286 36.1553 39.4487 36.8673 39.8074 37.5599C40.0411 38.297 40.3171 39.0201 40.634 39.7255C41.0539 40.3787 41.5064 41.0105 41.9896 41.6184C42.3398 42.3094 42.7289 42.98 43.1551 43.627C43.7374 44.1452 44.3502 44.6282 44.9901 45.0735C45.5746 45.5709 46.1933 46.0266 46.8416 46.4374C47.5119 46.8411 48.2141 47.1894 48.9411 47.4789C49.6224 47.8191 50.3335 48.0957 51.0654 48.3055C51.8072 48.5215 52.5687 48.6627 53.3386 48.727C54.1101 48.7225 54.8795 48.645 55.6365 48.4956C56.3956 48.4091 57.1453 48.2542 57.8765 48.0327C58.5849 47.7863 59.2707 47.4794 59.9264 47.1152C60.6587 46.8453 61.3666 46.5135 62.0425 46.1233C62.6459 45.6604 62.9517 44.8421 63.489 44.2883C64.0582 43.7746 64.5913 43.2223 65.0843 42.6351C65.5924 42.0444 66.0566 41.4173 66.473 40.7588C66.7414 40.0391 66.9596 39.3017 67.126 38.5518C67.3677 37.8389 67.5583 37.1096 67.6963 36.3696C67.8026 35.6168 67.8468 34.8565 67.8285 34.0965C67.9382 33.2747 67.9687 32.4443 67.9195 31.6168C67.7117 30.8227 67.4351 30.0483 67.0929 29.3023C66.807 28.5389 66.4471 27.8053 66.0183 27.1119C65.5904 26.4248 65.0948 25.7824 64.5388 25.1942C64.0537 24.5186 63.4996 23.8953 62.8856 23.3344" stroke="#FF534F" stroke-width="3" stroke-linecap="round" stroke-linejoin="round"/>
</svg>
