<?xml version="1.0" encoding="UTF-8"?>
<svg xmlns="http://www.w3.org/2000/svg" version="1.1" viewBox="0 0 1184.657 223.138">
  <defs>
    <style>
      .cls-1 {
        fill: #3d56dd;
      }

      .cls-2 {
        fill: #f2f2f2;
      }
    </style>
  </defs>
  <!-- Generator: Adobe Illustrator 28.6.0, SVG Export Plug-In . SVG Version: 1.2.0 Build 709)  -->
  <g>
    <g id="Layer_1">
      <path class="cls-1" d="M94.805,222.091c-.6.353-1.554.132-2.692-.39-2.339-1.13-4.744-2.467-7.059-3.771-6.816-3.876-13.432-8.101-20.265-11.951-17.415-9.917-34.768-19.988-52.082-30.071-2.79-1.739-5.153-4.136-8.091-5.509-1.407-.663-3.064-1.421-3.771-2.8-1.806-35.295-.063-71.298-.634-106.784.034-1.178.197-2.208.65-2.979C27.999,40.215,57.616,25.285,85.29,8.291c4.674-2.929,9.904-7.512,15.516-3.934,29.087,16.962,58.329,33.917,87.718,50.347,2.526,1.629,2.017,3.584-.28,5.221-29.479,17.859-60.201,33.821-89.607,51.789-4.274,3.669-2.318,10.124-2.693,15.061-.118,30.489-.114,60.998-.178,91.496.014,1.229-.018,3.236-.873,3.766l-.088.055Z"/>
      <path class="cls-1" d="M292.754,64.295c1.594.586,2.259-.237,2.917-.961,14.889-16.391,33.588-19.59,54.183-15.139,32.709,7.069,53.44,38.33,48.035,75.569-6.562,45.214-52.158,62.394-83.785,49.952-6.94-2.73-12.654-6.918-17.143-13.601-1.107,5.979-.614,11.364-.569,16.73.117,13.983.159,27.968.422,41.949.051,2.7-.587,3.196-3.287,3.157-9.987-.144-19.982-.004-29.968.271-2.898.08-3.938-.317-3.919-3.658.311-55.434.703-110.87-.063-166.303-.046-3.303.577-3.876,3.997-3.764,9.643.317,19.32.162,28.959-.32,3.377-.169,3.917.965,3.101,3.514-1.333,4.169-.47,8.738-2.881,12.603ZM296.573,112.455c-.575,29.578,23.087,38.416,42.716,33.135,13.758-3.701,19.612-14.518,21.915-27.536,3.036-17.163-7.506-41.579-33.446-41.239-19.095.25-31.452,14.577-31.185,35.641Z"/>
      <path class="cls-1" d="M735.098,61.77c.183-19.215,1.166-38.141-.16-57.034-.288-4.095.316-5.005,4.553-4.564,9.615.999,19.313.814,28.939-.113,3.311-.319,3.893.618,3.824,3.688-1.089,48.457-.227,96.922-.495,145.382-.041,7.435.414,14.828.796,22.227.175,3.405-.497,4.598-4.207,4.462-8.486-.31-16.992-.101-25.489-.072-5.849.02-7.946-2.292-5.834-7.632,1.092-2.761.448-5.525,1.91-8.099-2.385-.311-2.978,1.347-3.907,2.379-8.05,8.942-18.173,13.833-30.034,14.943-34.798,3.255-66.354-17.254-70.415-56.038-1.636-15.626.075-30.472,7.855-44.333,10.589-18.866,27.608-27.618,48.312-30.158,8.811-1.081,17.505-.156,26.056,2.863,7.123,2.515,12.596,7.066,18.297,12.099ZM735.97,112.309c-.095-1.672-.118-4.006-.378-6.313-1.975-17.511-15.169-29.614-31.904-29.318-20.295.359-33.846,15.738-32.947,37.392,1.038,25.005,24.133,40.121,46.706,30.26,13.497-5.896,18.351-17.359,18.523-32.022Z"/>
      <path class="cls-1" d="M560.969,46.424c25.473,1.133,47.491,9.712,60.474,32.857,17.256,30.764,8.864,74.288-29.941,91.822-25.173,11.374-60.108,7.911-82.807-13.145-27.855-25.838-27.201-87.475,22.543-105.946,4.491-1.668,9.112-3.076,13.774-4.171,5.19-1.219,10.538-1.407,15.956-1.417ZM563.038,147.037c3.301.195,9.378-1.304,14.871-4.734,12.421-7.758,15.399-19.917,14.485-33.315-.84-12.297-4.994-23.172-17.27-28.72-12.911-5.836-25.186-4.662-36.465,4.192-11.184,8.78-14.858,29.232-8.05,43.966,5.774,12.497,15.62,18.431,32.43,18.61Z"/>
      <path class="cls-1" d="M1086.779,122.006c10.138,26.401,44.158,34.878,65.392,16.611,3.976-3.42,5.553-3.329,8.31.794,3.711,5.551,7.747,10.799,13.152,14.82,3.574,2.659,1.236,4.471-.833,6.247-16.535,14.192-36.008,18.398-57.207,16.831-14.405-1.065-27.702-5.177-39.429-13.826-29.984-22.112-34.826-67.333-9.538-95.208,25.7-28.329,76.028-29.867,102.497-.275,10.268,11.479,15.39,24.929,14.506,40.53-.193,3.415-.73,6.962.559,10.335,1.176,3.079.124,4.05-3.103,3.995-11.153-.191-22.31-.135-33.465-.213-20.13-.14-40.267.376-60.843-.642ZM1151.482,101.902c-4.102-16.843-18.152-28.383-33.096-27.597-16.625.875-29.561,11.966-31.622,27.553,21.469-.738,42.871-.737,64.718.044Z"/>
      <path class="cls-1" d="M888.842,160.703c-2.193-.308-3.148,1.354-4.18,2.456-12.473,13.312-28.339,15.855-45.325,13.817-14.476-1.737-27.321-7.003-35.867-19.822-7.101-10.652-9.415-22.632-9.559-35.086-.273-23.642-.234-47.287-.323-70.931-.006-1.653-.389-3.467,2.408-3.107,10.454,1.347,20.961.554,31.441.509,3.439-.015,3.661.904,3.63,4.193-.226,24.121-1.61,48.276.61,72.36,1.542,16.727,18.649,25.474,35.816,18.882,12.567-4.825,17.542-14.802,18.136-27.174,1.013-21.122,1.115-42.28-.086-63.407-.229-4.026.981-4.897,4.831-4.782,9.821.294,19.657.088,29.488.093,1.793,0,3.754-.461,3.549,2.598-1.551,23.115-.574,46.261-.707,69.392-.1,17.315.107,34.632.314,51.947.028,2.316-.302,3.216-2.888,3.177-10.494-.159-20.994-.219-31.486-.025-3.413.063-3.025-1.592-2.237-3.567,1.479-3.708,2.294-7.511,2.434-11.522Z"/>
      <path class="cls-2" d="M96.59,222.683c-.86-.747-.982-2.88-.959-4.271.061-30.679.061-61.373.175-92.043.227-5.621-1.626-12.991,4.24-16.341,27.766-16.373,55.801-32.307,83.619-48.583,4.319-2.54,8.283-6.401,7.971,1.962-.007,32.548-.025,65.138.03,97.715-.017,2.604.016,5.603-1.323,7.815-1.474,2.454-4.442,3.788-6.944,5.117-8.672,4.429-17.211,9.096-25.505,14.267-5.795,3.588-12.144,6.231-17.989,9.705-4.839,2.9-9.255,6.452-14.109,9.342-7.937,4.788-15.958,9.449-23.931,14.175-1.427.858-3.989,2.274-5.185,1.218l-.089-.079Z"/>
      <path class="cls-1" d="M982.681,146.712c10.02,0,19.913.012,29.807-.003,11.49-.017,22.981.022,34.469-.148,2.754-.041,3.689.592,3.612,3.537-.195,7.482-.135,14.98.142,22.46.106,2.856-.944,3.179-3.405,3.175-35.8-.068-71.6-.105-107.399.063-3.964.019-4.489-1.58-3.922-4.708.029-.162.167-.33.141-.474-2.975-16.356,7.814-26.309,17.083-37.072,14.98-17.394,29.777-34.946,44.675-52.411.96-1.126,2.541-2.098,1.716-3.755-.842-1.69-2.671-.758-4.026-.753-18.151.064-36.302.137-54.451.4-2.83.041-3.681-.621-3.596-3.496.211-7.15.152-14.312.037-21.467-.037-2.346.182-3.434,3.117-3.423,32.805.117,65.61.082,98.415-.027,2.292-.008,4.455,1.44,6.963.052,1.549-.857,1.54.957,1.534,2.128-.028,5.966.054,11.934-.072,17.897-.055,2.618-1.808,4.556-3.415,6.436-19.992,23.384-39.418,47.253-60.149,70.003-.522.572-1.457.929-1.278,1.586Z"/>
      <path class="cls-1" d="M445.789,64.512c1.018.214,1.635-.458,2.146-1.043,10.2-11.684,24.065-15.295,38.551-17.592,3.415-.542,4.888-.148,4.58,4.202-.623,8.785-.442,17.64-.285,26.46.062,3.464-.863,4.658-4.472,4.314-6.821-.651-13.603-.255-20.107,2.309-10.216,4.028-14.995,11.966-16.575,22.426-3.355,22.203-2.063,44.49-1.208,66.754.128,3.334-.992,3.406-3.477,3.401-10.328-.02-20.662-.091-30.98.258-3.511.119-3.266-1.633-3.15-3.892,1.562-30.452.573-60.927.787-91.391.068-9.654.253-19.319-.741-28.943-.251-2.429-.007-3.334,3.018-3.243,9.819.296,19.655.158,29.481-.032,2.899-.056,4.233.227,3.576,3.706-.761,4.035-.795,8.207-1.143,12.307Z"/>
    </g>
  </g>
</svg>